<svg xmlns="http://www.w3.org/2000/svg" viewBox="0 0 512 512">
  <rect width="512" height="512" fill="#FA7343"/>
  <path d="M312.5 204.6c5.6 7.1 10.8 13.7 16.3 20 27.3 31.1 53.5 58.6 83.6 83.6 9.8 8.1 19.7 15.6 30.4 22 5.7 3.3 11.4 6.2 17.6 8.1 7.7 2.2 15.5 3.4 23.5 3.2 5.1-.1 10.2-.5 15.4-1.1-9.4 10.8-20.1 19.6-32.5 26.5-19.7 10.9-40.8 16-63.2 16.6-24.8.7-48.7-3.5-72-12.2-17.1-6.4-33.1-14.9-48.3-25-8.3-5.4-16.4-11-24.4-16.9 0 1-.1 1.7-.1 2.4-.1 9.3.7 18.5 2.7 27.5 1.6 7.4 4 14.5 7.1 21.3 2.4 5.4 5.5 10.4 8.9 15.2 1.4 1.9 2.6 3.9 3.9 5.9-20.3-8.8-39.6-19.5-58.2-31.7-22-14.6-42.5-31.3-61.3-50.3-16.1-16.3-30.8-34-44.2-52.8-2.3-3.3-4.2-6.9-6.3-10.3-4.5-7.4-9.3-14.6-13.2-22.3-7.3-14.5-13.6-29.5-18.6-44.9-1.5-4.5-2.8-9.1-4.3-13.7 17.1 14.2 33.8 27.9 50.7 41.4 5.9 4.7 11.9 9.4 18 13.9 2 .1 2.8-1.4 2.8-3.2-.3-3.7-.9-7.3-1.7-11-5.4-24.3-13.6-47.7-24-70.5-5.3-11.6-11.2-22.8-17.6-33.8-1-1.8-2.1-3.5-3.1-5.3 28.7 22.3 55.4 47.5 81.7 73.4 3.4 3.3 6.6 6.9 10 10.1 1.5 1.5 3 2.8 5.4 2.9 1.6 0 2.7-1 3.6-2.1 1.6-1.9 2.6-4.2 3.6-6.5 6-13.6 8.4-28.1 7.5-42.7-.1-2.1-.3-4.2-.5-6.2 21.1 22.4 42.5 44.1 62.9 67.1z" fill="#fff"/>
</svg>